<svg width="69" height="88" viewBox="0 0 69 88" fill="none" xmlns="http://www.w3.org/2000/svg">
<path fill-rule="evenodd" clip-rule="evenodd" d="M65.6306 87.5C64.8018 87.5 64.0069 87.1708 63.4209 86.5847C62.8348 85.9987 62.5056 85.2038 62.5056 84.375V3.125C62.5056 2.2962 62.8348 1.50134 63.4209 0.915291C64.0069 0.32924 64.8018 0 65.6306 0C66.4594 0 67.2542 0.32924 67.8403 0.915291C68.4263 1.50134 68.7556 2.2962 68.7556 3.125V84.375C68.7556 85.2038 68.4263 85.9987 67.8403 86.5847C67.2542 87.1708 66.4594 87.5 65.6306 87.5ZM50.0056 43.75C50.0056 44.5788 49.6763 45.3737 49.0903 45.9597C48.5042 46.5458 47.7094 46.875 46.8806 46.875H10.6743L24.0931 60.2875C24.3836 60.578 24.6141 60.923 24.7714 61.3026C24.9286 61.6822 25.0095 62.0891 25.0095 62.5C25.0095 62.9109 24.9286 63.3178 24.7714 63.6974C24.6141 64.077 24.3836 64.422 24.0931 64.7125C23.8025 65.0031 23.4576 65.2335 23.078 65.3908C22.6984 65.548 22.2915 65.6289 21.8806 65.6289C21.4697 65.6289 21.0628 65.548 20.6832 65.3908C20.3036 65.2335 19.9586 65.0031 19.6681 64.7125L0.918086 45.9625C0.627066 45.6722 0.396173 45.3274 0.238633 44.9477C0.0810929 44.5681 0 44.161 0 43.75C0 43.339 0.0810929 42.9319 0.238633 42.5523C0.396173 42.1726 0.627066 41.8278 0.918086 41.5375L19.6681 22.7875C20.2549 22.2007 21.0507 21.8711 21.8806 21.8711C22.7104 21.8711 23.5063 22.2007 24.0931 22.7875C24.6799 23.3743 25.0095 24.1702 25.0095 25C25.0095 25.8298 24.6799 26.6257 24.0931 27.2125L10.6743 40.625H46.8806C47.7094 40.625 48.5042 40.9542 49.0903 41.5403C49.6763 42.1263 50.0056 42.9212 50.0056 43.75Z" fill="#EAEAEA"/>
</svg>
