<svg width="21" height="21" viewBox="0 0 21 21" fill="none" xmlns="http://www.w3.org/2000/svg">
<g clip-path="url(#clip0_2_22)">
<path d="M11.1562 13.125C10.794 13.125 10.5 12.537 10.5 11.8125C10.5 11.088 10.794 10.5 11.1562 10.5C11.5185 10.5 11.8125 11.088 11.8125 11.8125C11.8125 12.537 11.5185 13.125 11.1562 13.125Z" fill="#262626"/>
<path d="M14.2118 0.160124C14.2827 0.221815 14.3396 0.298042 14.3786 0.38364C14.4175 0.469237 14.4376 0.562206 14.4375 0.656249V1.3125H15.0938C15.6159 1.3125 16.1167 1.51992 16.4859 1.88913C16.8551 2.25834 17.0625 2.7591 17.0625 3.28125V19.6875H19.0312C19.2053 19.6875 19.3722 19.7566 19.4953 19.8797C19.6184 20.0028 19.6875 20.1697 19.6875 20.3437C19.6875 20.5178 19.6184 20.6847 19.4953 20.8078C19.3722 20.9309 19.2053 21 19.0312 21H1.96875C1.7947 21 1.62778 20.9309 1.50471 20.8078C1.38164 20.6847 1.3125 20.5178 1.3125 20.3437C1.3125 20.1697 1.38164 20.0028 1.50471 19.8797C1.62778 19.7566 1.7947 19.6875 1.96875 19.6875H3.9375V1.96875C3.93752 1.81063 3.99463 1.65784 4.09832 1.53848C4.20202 1.41911 4.34532 1.3412 4.50188 1.31906L13.6894 0.00656104C13.7824 -0.0067189 13.8771 0.000118371 13.9672 0.0266107C14.0574 0.0531031 14.1407 0.0986331 14.2118 0.160124ZM15.0938 2.625H14.4375V19.6875H15.75V3.28125C15.75 3.1072 15.6809 2.94028 15.5578 2.81721C15.4347 2.69414 15.2678 2.625 15.0938 2.625ZM5.25 2.53837V19.6875H13.125V1.41356L5.25 2.53837Z" fill="#262626"/>
</g>
<defs>
<clipPath id="clip0_2_22">
<rect width="21" height="21" fill="white"/>
</clipPath>
</defs>
</svg>
