<svg width="50" height="49" viewBox="0 0 50 49" fill="none" xmlns="http://www.w3.org/2000/svg">
<path d="M25 0C21.717 0 18.4661 0.649444 15.4329 1.91125C12.3998 3.17306 9.6438 5.02252 7.32233 7.35404C2.63392 12.0628 0 18.4491 0 25.1083C0 36.2061 7.175 45.6217 17.1 48.9611C18.35 49.162 18.75 48.3836 18.75 47.7057V43.4624C11.825 44.9689 10.35 40.0979 10.35 40.0979C9.2 37.1853 7.575 36.407 7.575 36.407C5.3 34.8503 7.75 34.9005 7.75 34.9005C10.25 35.0762 11.575 37.4866 11.575 37.4866C13.75 41.3031 17.425 40.1732 18.85 39.5706C19.075 37.9386 19.725 36.8338 20.425 36.2061C14.875 35.5784 9.05 33.4191 9.05 23.8528C9.05 21.0658 10 18.8312 11.625 17.0485C11.375 16.4208 10.5 13.8095 11.875 10.4199C11.875 10.4199 13.975 9.74201 18.75 12.981C20.725 12.4286 22.875 12.1524 25 12.1524C27.125 12.1524 29.275 12.4286 31.25 12.981C36.025 9.74201 38.125 10.4199 38.125 10.4199C39.5 13.8095 38.625 16.4208 38.375 17.0485C40 18.8312 40.95 21.0658 40.95 23.8528C40.95 33.4442 35.1 35.5533 29.525 36.181C30.425 36.9594 31.25 38.491 31.25 40.826V47.7057C31.25 48.3836 31.65 49.1871 32.925 48.9611C42.85 45.5966 50 36.2061 50 25.1083C50 21.811 49.3534 18.546 48.097 15.4997C46.8406 12.4535 44.9991 9.68556 42.6777 7.35404C40.3562 5.02252 37.6002 3.17306 34.5671 1.91125C31.5339 0.649444 28.283 0 25 0Z" fill="#463A5F"/>
</svg>
