<svg width="37" height="29" viewBox="0 0 37 29" fill="none" xmlns="http://www.w3.org/2000/svg">
<path d="M3.3315 5.64159C3.60409 5.31595 3.99489 5.11194 4.41791 5.07443C4.84092 5.03693 5.26151 5.16901 5.58715 5.4416L15.819 14.0069C16.0361 14.1886 16.3165 14.2767 16.5985 14.2517C16.8805 14.2267 17.141 14.0907 17.3228 13.8736C17.5045 13.6565 17.5925 13.3761 17.5675 13.0941C17.5425 12.8121 17.4065 12.5515 17.1894 12.3698L13.0427 8.89847L13.154 8.7522C13.5688 8.21679 14.0139 7.6984 14.3165 7.45333C14.5443 7.27096 14.8765 7.10359 15.2284 6.96934C15.4027 6.90084 15.6746 6.92523 15.948 7.15409L19.2451 9.91418C19.4622 10.0959 19.7426 10.184 20.0246 10.159C20.3066 10.134 20.5671 9.99795 20.7489 9.78085C20.9306 9.56376 21.0187 9.28337 20.9937 9.00136C20.9687 8.71934 20.8326 8.45882 20.6156 8.27708L18.0535 6.13233C18.0958 6.06945 18.1388 6.00704 18.1824 5.94509C18.5762 5.39488 18.9664 4.97533 19.2182 4.84085C19.4552 4.71071 19.9682 4.6334 20.5882 4.63451C20.8563 4.63347 21.1048 4.64934 21.2863 4.66204L23.4898 6.50667C23.7069 6.6884 23.9873 6.77645 24.2693 6.75145C24.5513 6.72645 24.8118 6.59044 24.9935 6.37334C25.1753 6.15625 25.2633 5.87586 25.2383 5.59385C25.2133 5.31184 25.0773 5.05131 24.8602 4.86957L23.2231 3.49913L23.6918 2.93924C23.8834 2.71044 24.1207 2.52433 24.3886 2.39291C24.6565 2.26149 24.9489 2.18768 25.2471 2.17624C25.5452 2.1648 25.8425 2.21599 26.1196 2.32649C26.3968 2.437 26.6477 2.60438 26.8562 2.81782L30.9295 6.98224C31.4528 7.5177 31.8575 8.15724 32.1175 8.85932L34.2035 14.4897C34.2689 14.6661 34.2864 14.8567 34.2544 15.0421C34.2224 15.2276 34.142 15.4012 34.0213 15.5456L25.2709 25.9984C25.158 26.1331 25.0136 26.2379 24.8504 26.3034C24.6873 26.3689 24.5105 26.3931 24.3358 26.3738L18.8522 25.7733C18.3434 25.7179 17.8553 25.5413 17.4288 25.2584L11.8728 21.568C11.65 21.4202 11.4907 21.1943 11.4265 20.9348C11.3622 20.6753 11.3977 20.4011 11.5258 20.1665L12.5729 18.2504L14.03 19.4701C14.2471 19.6518 14.5274 19.7399 14.8095 19.7149C15.0915 19.6899 15.352 19.5539 15.5337 19.3368C15.7155 19.1197 15.8035 18.8393 15.7785 18.5573C15.7535 18.2753 15.6175 18.0147 15.4004 17.833L3.53148 7.89725C3.20584 7.62465 3.00183 7.23385 2.96433 6.81084C2.92682 6.38782 3.0589 5.96723 3.3315 5.64159ZM11.4039 7.52665L6.9576 3.80451C6.19778 3.16845 5.2164 2.86027 4.22936 2.94778C3.24232 3.03529 2.33047 3.51132 1.6944 4.27114C1.05834 5.03096 0.750162 6.01234 0.837672 6.99938C0.925181 7.98642 1.40121 8.89827 2.16103 9.53434L10.9031 16.8525L9.65147 19.146C9.26812 19.8492 9.16218 20.6705 9.35456 21.448C9.54693 22.2255 10.0237 22.9027 10.6907 23.346L16.2483 27.0378C16.9591 27.5093 17.7726 27.8036 18.6205 27.896L24.1041 28.4965C24.6282 28.5538 25.1583 28.4809 25.6475 28.2842C26.1366 28.0875 26.5696 27.7731 26.908 27.3688L35.6583 16.916C36.0205 16.483 36.2619 15.962 36.3579 15.4058C36.4539 14.8495 36.4012 14.2778 36.205 13.7484L34.1207 8.11944C33.7563 7.13542 33.1889 6.23916 32.4552 5.48901L28.3819 1.32459C27.9648 0.898046 27.463 0.563625 26.9088 0.342887C26.3546 0.122147 25.7603 0.0199881 25.1641 0.042995C24.568 0.0660026 23.9833 0.213665 23.4478 0.476464C22.9122 0.739263 22.4377 1.11137 22.0547 1.56879L21.2585 2.51994C21.0344 2.50614 20.8098 2.49926 20.5853 2.4993C19.9486 2.49815 18.9565 2.55581 18.2071 2.9587C17.4693 3.35452 16.8316 4.16279 16.4433 4.70645L16.2821 4.93899C15.69 4.7398 15.0471 4.75286 14.4636 4.97593C13.9311 5.17073 13.4312 5.445 12.9807 5.78942C12.4544 6.21195 11.873 6.91975 11.4665 7.44533L11.4039 7.52665Z" fill="#463A5F"/>
</svg>
