<svg width="23" height="33" viewBox="0 0 23 33" fill="none" xmlns="http://www.w3.org/2000/svg">
<path d="M18.2973 0.141153C18.5019 0.258169 18.6603 0.440178 18.7465 0.657445C18.8327 0.874712 18.8417 1.11439 18.7719 1.33733L15.0063 13.4064H21.9542C22.1583 13.4063 22.3581 13.4652 22.5287 13.5758C22.6993 13.6864 22.8334 13.8439 22.9143 14.0288C22.9953 14.2137 23.0196 14.4179 22.9842 14.6163C22.9488 14.8147 22.8553 14.9984 22.7152 15.145L5.98856 32.6752C5.82672 32.845 5.61135 32.9557 5.37757 32.9892C5.14378 33.0228 4.90536 32.9773 4.70117 32.8601C4.49699 32.7429 4.33906 32.5609 4.25315 32.3438C4.16724 32.1267 4.1584 31.8873 4.22808 31.6647L7.99367 19.5935H1.04583C0.841653 19.5936 0.641918 19.5347 0.471285 19.4241C0.300652 19.3135 0.16659 19.156 0.08565 18.9711C0.00470977 18.7862 -0.0195659 18.582 0.0158196 18.3836C0.051205 18.1853 0.144702 18.0015 0.28477 17.855L17.0114 0.324705C17.1731 0.155175 17.3881 0.0445688 17.6216 0.0108694C17.855 -0.0228301 18.0932 0.0223595 18.2973 0.139091V0.141153ZM3.46493 17.5312H9.40917C9.57277 17.5311 9.7341 17.569 9.88017 17.6417C10.0262 17.7143 10.153 17.8198 10.2502 17.9496C10.3474 18.0794 10.4124 18.2299 10.4399 18.389C10.4674 18.5481 10.4567 18.7113 10.4086 18.8655L7.54833 28.0287L19.533 15.4688H13.5908C13.4272 15.4688 13.2659 15.431 13.1198 15.3583C12.9738 15.2856 12.847 15.1801 12.7498 15.0503C12.6526 14.9205 12.5876 14.7701 12.5601 14.611C12.5326 14.4519 12.5433 14.2887 12.5914 14.1344L15.4517 4.97125L3.46493 17.5312Z" fill="#262626"/>
</svg>
