<svg width="50" height="50" viewBox="0 0 50 50" fill="none" xmlns="http://www.w3.org/2000/svg">
<path d="M3.5 3.5C6.62274e-07 7.03333 0 12.6833 0 24V26C0 37.3 6.62274e-07 42.95 3.5 46.5C7.03333 50 12.6833 50 24 50H26C37.3 50 42.95 50 46.5 46.5C50 42.9667 50 37.3167 50 26V24C50 12.7 50 7.05 46.5 3.5C42.9667 6.62274e-07 37.3167 0 26 0H24C12.7 0 7.05 6.62274e-07 3.5 3.5ZM8.43333 15.2167H14.1667C14.35 24.75 18.55 28.7833 21.8833 29.6167V15.2167H27.2667V23.4333C30.55 23.0833 34.0167 19.3333 35.1833 15.2H40.55C40.1126 17.3397 39.2385 19.3661 37.9825 21.1527C36.7264 22.9393 35.1154 24.4476 33.25 25.5833C35.3318 26.6191 37.1702 28.0845 38.644 29.883C40.1178 31.6814 41.1935 33.772 41.8 36.0167H35.8833C34.6167 32.0667 31.45 29 27.2667 28.5833V36.0167H26.6C15.2 36.0167 8.7 28.2167 8.43333 15.2167Z" fill="#463A5F"/>
</svg>
