<svg width="50" height="35" viewBox="0 0 50 35" fill="none" xmlns="http://www.w3.org/2000/svg">
<path d="M25.1594 0H25.4375C28.0063 0.00934247 41.0219 0.102768 44.5312 1.04324C45.5922 1.33027 46.5589 1.88974 47.3349 2.66574C48.1108 3.44175 48.6688 4.4071 48.9531 5.46534C49.2688 6.64872 49.4906 8.21514 49.6406 9.83139L49.6719 10.1553L49.7406 10.9649L49.7656 11.2888C49.9688 14.1352 49.9937 16.8009 49.9969 17.3832V17.6168C49.9937 18.2209 49.9656 21.0673 49.7406 24.0319L49.7156 24.3589L49.6875 24.6828C49.5312 26.4641 49.3 28.2329 48.9531 29.5347C48.6697 30.5933 48.112 31.5591 47.3359 32.3353C46.5598 33.1114 45.5926 33.6706 44.5312 33.9568C40.9062 34.9284 27.1281 34.9969 25.2188 35H24.775C23.8094 35 19.8156 34.9813 15.6281 34.8381L15.0969 34.8194L14.825 34.8069L14.2906 34.7851L13.7562 34.7633C10.2875 34.6107 6.98438 34.3647 5.4625 33.9536C4.40153 33.6677 3.43458 33.109 2.65851 32.3335C1.88245 31.5579 1.32452 30.5927 1.04062 29.5347C0.69375 28.2361 0.4625 26.4641 0.30625 24.6828L0.28125 24.3558L0.25625 24.0319C0.102024 21.9218 0.0165621 19.8072 0 17.6915L0 17.3085C0.00625 16.6389 0.03125 14.3251 0.2 11.7715L0.221875 11.4508L0.23125 11.2888L0.25625 10.9649L0.325 10.1553L0.35625 9.83139C0.50625 8.21514 0.728125 6.64561 1.04375 5.46534C1.32717 4.40668 1.88488 3.44086 2.66098 2.66473C3.43708 1.88859 4.40428 1.32941 5.46562 1.04324C6.9875 0.638402 10.2906 0.389269 13.7594 0.233561L14.2906 0.211762L14.8281 0.193078L15.0969 0.183736L15.6312 0.161937C18.6053 0.0665642 21.5806 0.0136178 24.5562 0.0031143H25.1594V0ZM20 9.99644V25.0004L32.9906 17.5016L20 9.99644Z" fill="#463A5F"/>
</svg>
